<?xml version="1.0"?>
<svg xmlns="http://www.w3.org/2000/svg" height="512px" viewBox="0 -127 512.001 512" width="512px" class=""><g><g fill-rule="evenodd"><path d="m433.199219 110.476562c37.996093 0 68.800781 30.804688 68.800781 68.796876 0 37.996093-30.804688 68.800781-68.800781 68.800781h-300.628907c-30.199218 0-54.683593-24.484375-54.683593-54.6875s24.484375-54.6875 54.683593-54.6875c3.546876 0 7.015626.339843 10.371094.984375 1.613282-31.988282 28.058594-57.429688 60.449219-57.429688 6.15625 0 12.097656.921875 17.699219 2.628906 16.507812-37.757812 54.1875-64.152343 98.03125-64.152343 53.386718 0 97.636718 39.121093 105.648437 90.261719 2.765625-.339844 5.578125-.515626 8.429688-.515626zm0 0" fill="#67e4dc" data-original="#67E4DC" class="" style="fill:#B7D1E2" data-old_color="#67e4dc"/><path d="m99.132812 53.695312c-23 0-41.785156 18.066407-42.929687 40.785157-2.386719-.457031-4.847656-.699219-7.363281-.699219-21.449219 0-38.839844 17.390625-38.839844 38.839844 0 21.449218 17.390625 38.839844 38.839844 38.839844h33.617187c8.453125-19.289063 27.710938-32.761719 50.117188-32.761719 3.542969 0 7.011719.339843 10.367187.984375 1.613282-31.988282 28.058594-57.429688 60.449219-57.429688 6.15625 0 12.097656.921875 17.699219 2.628906 6.109375-13.972656 15.117187-26.390624 26.265625-36.488281-13.070313-22.933593-37.746094-38.394531-66.027344-38.394531-31.140625 0-57.898437 18.742188-69.625 45.5625-3.976563-1.214844-8.195313-1.867188-12.570313-1.867188zm0 0" fill="#d9f9f6" data-original="#D9F9F6" class="active-path" style="fill:#F4F4F4" data-old_color="#d9f9f6"/><path d="m433.199219 100.476562c-.105469 0-.210938 0-.320313 0-5.667968-23.726562-18.726562-45.257812-37.382812-61.363281-21.207032-18.300781-48.328125-28.382812-76.371094-28.382812-25.585938 0-49.828125 8.351562-69.570312 22.953125-16.140626-21.015625-41.351563-33.683594-68.226563-33.683594-31.402344 0-60.058594 17.089844-75.125 44.164062-2.335937-.316406-4.695313-.472656-7.070313-.472656-24.746093 0-45.648437 16.945313-51.414062 40.101563-26.414062.597656-47.71875 22.269531-47.71875 48.828125 0 26.929687 21.910156 48.839844 48.839844 48.839844h20.167968c-.726562 3.867187-1.121093 7.847656-1.121093 11.925781 0 35.667969 29.015625 64.6875 64.683593 64.6875h110.316407c5.523437 0 10-4.476563 10-10 0-5.523438-4.476563-10-10-10h-110.316407c-24.640624 0-44.683593-20.046875-44.683593-44.6875s20.046875-44.6875 44.683593-44.6875c2.84375 0 5.695313.269531 8.484376.804687 2.839843.546875 5.78125-.164062 8.058593-1.949218 2.277344-1.789063 3.667969-4.472657 3.816407-7.363282 1.355468-26.882812 23.519531-47.9375 50.460937-47.9375 5.035156 0 10.003906.738282 14.78125 2.195313 4.855469 1.480469 10.046875-.90625 12.082031-5.558594 15.445313-35.328125 50.328125-58.15625 88.871094-58.15625 48.0625 0 88.339844 34.402344 95.765625 81.804687.835937 5.328126 5.75 9.042969 11.097656 8.378907 2.382813-.292969 4.808594-.441407 7.210938-.441407 32.421875 0 58.800781 26.378907 58.800781 58.800782s-26.378906 58.796875-58.800781 58.796875h-110.3125c-5.523438 0-10 4.476562-10 10 0 5.523437 4.476562 10 10 10h110.316406c43.449219 0 78.796875-35.347657 78.796875-78.796875 0-43.453125-35.347656-78.800782-78.800781-78.800782zm-217.632813-27.171874c-4.007812-.699219-8.078125-1.050782-12.175781-1.050782-34.03125 0-62.601563 24.078125-69.128906 56.464844-.5625-.011719-1.125-.019531-1.6875-.019531-24.0625 0-45.085938 13.214843-56.226563 32.761719h-27.507812c-15.902344 0-28.839844-12.9375-28.839844-28.839844s12.9375-28.839844 28.839844-28.839844c1.835937 0 3.679687.175781 5.476562.519531 2.839844.546875 5.78125-.164062 8.058594-1.949219 2.277344-1.789062 3.671875-4.472656 3.816406-7.363281.882813-17.546875 15.355469-31.292969 32.941406-31.292969 3.289063 0 6.539063.480469 9.652344 1.433594 4.855469 1.484375 10.050782-.910156 12.082032-5.558594 10.507812-24.035156 34.238281-39.566406 60.460937-39.566406 21.082031 0 40.832031 10.167969 53.175781 26.953125-7.414062 7.761719-13.816406 16.597657-18.9375 26.347657zm0 0" data-original="#000000" class="" style="fill:#000000" data-old_color="#000000"/><path d="m282.886719 238.074219c-5.507813 0-10 4.492187-10 10 0 5.507812 4.492187 10 10 10 5.507812 0 10-4.492188 10-10 0-5.507813-4.492188-10-10-10zm0 0" data-original="#000000" class="" style="fill:#000000" data-old_color="#000000"/></g></g> </svg>
