<svg id="Capa_1" enable-background="new 0 0 512 512" height="512" viewBox="0 0 512 512" width="512" xmlns="http://www.w3.org/2000/svg"><g><g><g><g><g><g><g><circle cx="256" cy="256" fill="#a7e340" r="256"/></g></g></g></g></g></g><path d="m512 256c0-8.36-.401-16.627-1.184-24.782l-115.017-115.017-9.941 10.786-44.599-44.599-22.868 29.008-46.966-46.966-8.877 73.525-60.956-60.955 14.895 110.784-137.318 19.692 59.08 59.08-73.802 4.887 48.76 48.76-34.038 20.434 45.718 45.718-8.686 9.443 115.017 115.017c8.155.784 16.422 1.185 24.782 1.185 141.385 0 256-114.615 256-256z" fill="#86c42b"/><g><path d="m426.851 300.937-112.111-45.402 111.378-47.17c11.432-4.842 16.775-18.034 11.933-29.466s-18.034-16.775-29.466-11.933l-111.378 47.17 45.402-112.111c4.66-11.507-.891-24.614-12.398-29.274-11.507-4.66-24.614.891-29.274 12.398l-44.814 111.384-47.758-110.651c-4.842-11.432-18.034-16.775-29.466-11.933-11.432 4.842-16.775 18.034-11.933 29.466l47.17 111.378-112.111-45.402c-11.507-4.66-24.614.89-29.274 12.398-4.66 11.507.891 24.614 12.398 29.274l112.111 45.402-111.378 47.17c-11.432 4.842-16.775 18.034-11.933 29.466 4.842 11.432 18.034 16.775 29.466 11.933l111.378-47.17-45.402 112.111c-4.66 11.507.89 24.614 12.398 29.274 11.507 4.66 24.614-.891 29.274-12.398l45.402-112.111 47.17 111.378c4.842 11.432 18.034 16.775 29.466 11.933s16.775-18.034 11.933-29.466l-47.17-111.378 112.11 45.402c11.507 4.66 24.614-.891 29.274-12.398 4.661-11.507-.89-24.613-12.397-29.274zm-174.098-44.911.933-2.304 2.288-.969 2.304.933.969 2.288-.933 2.304-2.289.969-2.303-.933z" fill="#e9edf5"/></g><g><path d="m426.851 300.937-112.111-45.402 111.378-47.17c11.432-4.842 16.775-18.034 11.933-29.466s-18.034-16.775-29.466-11.933l-111.378 47.17 45.402-112.111c4.66-11.507-.891-24.614-12.398-29.274-11.507-4.66-24.614.891-29.274 12.398l-44.814 111.384v56.28l2.154.872.969 2.288-.933 2.304-2.191.928v56.377l.341-.843 47.17 111.378c4.842 11.432 18.034 16.775 29.466 11.933s16.775-18.034 11.933-29.466l-47.17-111.378 112.11 45.402c11.507 4.66 24.614-.891 29.274-12.398 4.663-11.506-.888-24.612-12.395-29.273z" fill="#cdd2e1"/></g><g><path d="m431.226 233.52h-120.955l85.528-85.528c8.779-8.779 8.779-23.012 0-31.791s-23.012-8.779-31.791 0l-85.528 85.528v-120.955c0-12.415-10.064-22.48-22.48-22.48-12.415 0-22.48 10.064-22.48 22.48v120.955l-85.528-85.528c-8.779-8.779-23.012-8.779-31.791 0-8.779 8.779-8.779 23.012 0 31.791l85.528 85.528h-120.955c-12.415 0-22.48 10.064-22.48 22.48s10.064 22.48 22.48 22.48h120.955l-85.528 85.528c-8.779 8.779-8.779 23.012 0 31.791 8.779 8.779 23.012 8.779 31.791 0l85.528-85.528v120.955c0 12.415 10.064 22.479 22.48 22.479 12.415 0 22.48-10.064 22.48-22.479v-120.956l85.528 85.528c8.779 8.779 23.012 8.779 31.791 0s8.779-23.012 0-31.791l-85.528-85.528h120.955c12.415 0 22.48-10.064 22.48-22.48-.001-12.414-10.065-22.479-22.48-22.479zm-178.226 23.723v-2.485l1.757-1.757h2.485l1.757 1.757v2.485l-1.756 1.757h-2.485z" fill="#fff"/></g><g><path d="m431.226 233.52h-120.955l85.528-85.528c8.779-8.779 8.779-23.012 0-31.791s-23.012-8.779-31.791 0l-85.528 85.528v-120.955c0-12.374-9.998-22.41-22.356-22.476v194.702h1.119l1.757 1.757v2.485l-1.757 1.758h-1.119v194.702c12.358-.067 22.356-10.103 22.356-22.476v-120.956l85.528 85.528c8.779 8.779 23.012 8.779 31.791 0s8.779-23.012 0-31.791l-85.528-85.528h120.955c12.415 0 22.48-10.064 22.48-22.48-.001-12.414-10.065-22.479-22.48-22.479z" fill="#e9edf5"/></g><g><g><g><g><g><g><circle cx="256" cy="256" fill="#ffce00" r="43.193"/></g></g></g></g></g></g><g><g><g><g><g><g><path d="m299.193 256c0-23.813-19.272-43.123-43.069-43.19v86.38c23.797-.067 43.069-19.377 43.069-43.19z" fill="#fdba12"/></g></g></g></g></g></g></g></svg>