<?xml version="1.0"?>
<svg xmlns="http://www.w3.org/2000/svg" id="Layer_1" enable-background="new 0 0 512.001 512.001" height="512px" viewBox="0 0 512.001 512.001" width="512px" class="hovered-paths"><g><g><g clip-rule="evenodd" fill-rule="evenodd"><path d="m223.847 326.622c-18.76-29.542-31.353-84.143-31.353-146.622 0-93.888 28.433-170 63.507-170-93.888 0-170 76.112-170 170 0 44.144 16.827 84.356 44.417 114.574 11.459 12.551 24.774 23.379 39.512 32.048 15.115 8.891 24.572 19.921 24.572 37.629 0 11 9 20 20 20h25.997c-4.109 0-7.471-8.999-7.471-20-.002-17.708-3.534-28.738-9.181-37.629z" fill="#ffbecb" data-original="#FFBECB" class="" style="fill:#F7CDD6" data-old_color="#ffbecb"/><path d="m192.494 180c0 62.479 12.592 117.08 31.353 146.622 5.647 8.891 9.179 19.921 9.179 37.629 0 11.001 3.362 20 7.471 20h31.006c4.109 0 7.471-8.999 7.471-20 0-17.708 3.533-28.737 9.179-37.629 18.761-29.542 31.353-84.143 31.353-146.622 0-17.788-1.022-34.935-2.915-51.05h-20.591c-11 0-20-9-20-20s8.999-20 19.999-20c0-7.859 3.022-15.012 7.969-20.359-11.642-35.894-28.815-58.591-47.967-58.591-35.074 0-63.507 76.111-63.507 170z" fill="#ff7d97" data-original="#FF7D97" class="" style="fill:#CA728B" data-old_color="#ff7d97"/><path d="m319.507 180c0 62.479-12.592 117.08-31.353 146.622-5.647 8.891-9.179 19.921-9.179 37.629 0 11.001-3.362 20-7.471 20h25.996c11 0 20-8.999 20-20 0-17.708 9.457-28.737 24.572-37.629 50.22-29.542 83.928-84.143 83.928-146.622 0-17.83-2.747-35.019-7.837-51.167-.71.077-1.432.117-2.162.117h-43-56.409c1.893 16.115 2.915 33.262 2.915 51.05z" fill="#ffbecb" data-original="#FFBECB" class="" style="fill:#F7CDD6" data-old_color="#ffbecb"/><path d="m316.592 128.95h56.409 43c.73 0 1.452-.04 2.162-.117 9.993-1.087 17.838-9.613 17.838-19.883 0-11-9-20-20-20h-3c0-22.091-17.909-40-40-40-2.669 0-5.277.261-7.8.76-9.265 1.832-17.379 6.863-23.145 13.894-4.643-2.947-10.149-4.655-16.055-4.655-8.71 0-16.553 3.712-22.033 9.64-4.945 5.349-7.967 12.502-7.967 20.36-11 0-19.999 9-19.999 20s9 20 20 20h20.59z" fill="#fff" data-original="#FFF" class="hovered-path active-path" data-old_color="#fff" style="fill:#F4F4F4"/><path d="m303.967 68.589c5.481-5.928 13.324-9.64 22.033-9.64 5.906 0 11.413 1.708 16.055 4.655 5.766-7.032 13.88-12.063 23.146-13.893-29.538-24.784-67.625-39.711-109.2-39.711 19.152 0 36.325 22.697 47.966 58.589z" fill="#ffbecb" data-original="#FFBECB" class="" style="fill:#F7CDD6" data-old_color="#ffbecb"/><path d="m169.929 326.622c-14.737-8.669-28.053-19.497-39.512-32.048-1.442-.213-2.917-.323-4.417-.323-16.568 0-30 13.432-30 30-11 0-19.999 9-19.999 20s9 20 20 20h77 21.501c-.001-17.708-9.458-28.738-24.573-37.629z" fill="#fff" data-original="#FFF" class="hovered-path active-path" data-old_color="#fff" style="fill:#F4F4F4"/><path d="m306.001 442.001h-100v40c0 11 9 20 20 20h60c11 0 20-9 20-20z" fill="#cc9081" data-original="#CC9081" class="" style="fill:#2B7C93" data-old_color="#cc9081"/></g><g><path d="m446.001 108.95c0-14.446-10.263-26.54-23.881-29.373-4.399-23.106-24.751-40.627-49.119-40.627-1.639 0-3.265.085-4.877.241-31.754-25.302-71.39-39.191-112.123-39.191-99.252 0-180 80.748-180 180 0 31.927 8.472 63.294 24.499 90.709 3.305 5.653 6.93 11.098 10.817 16.341-12.221 4.841-21.512 15.53-24.386 28.602-12.123 3.853-20.931 15.217-20.931 28.599 0 16.542 13.458 30 30 30h90.221c3.018 8.509 9.77 15.261 18.279 18.279v39.595c-4.809.725-8.5 4.864-8.5 9.875v40c0 16.542 13.458 30 30 30h60c16.542 0 30-13.458 30-30v-40c0-5.012-3.691-9.15-8.5-9.876v-39.594c11.639-4.128 20-15.243 20-28.28 0-12.398 5.691-20.803 19.643-29.01 26.556-15.622 48.812-37.937 64.359-64.532 16.027-27.416 24.499-58.782 24.499-90.709 0-15.169-1.89-30.174-5.614-44.732 9.297-5.102 15.614-14.985 15.614-26.317zm-43-20c0 5.523 4.477 10 10 10h3c5.514 0 10 4.486 10 10s-4.486 10-10 10h-120c-5.514 0-10-4.486-10-10s4.486-10 10-10c5.522 0 10-4.478 10-10 0-11.028 8.972-20 20-20 3.805 0 7.504 1.071 10.696 3.097 4.267 2.709 9.886 1.808 13.092-2.102 5.73-6.988 14.19-10.996 23.212-10.996 16.542.001 30 13.459 30 30.001zm-63.074-37.505c-4.429-1.645-9.138-2.496-13.927-2.496-6.107 0-11.896 1.381-17.079 3.839-4.351-11.022-9.229-20.424-14.542-28.106 18.136 4.484 35.411 12.121 50.972 22.594-1.892 1.26-3.705 2.65-5.424 4.169zm-243.926 128.555c0-75.024 51.909-138.141 121.693-155.353-5.907 8.499-11.279 19.096-15.967 31.645-12.402 33.2-19.233 77.134-19.233 123.708 0 10.539.357 21.118 1.062 31.442.361 5.278 4.754 9.319 9.967 9.319.229 0 .459-.008.691-.023 5.51-.376 9.672-5.148 9.295-10.658-.674-9.873-1.016-19.993-1.016-30.08 0-44.243 6.381-85.691 17.969-116.708 10.127-27.108 23.412-43.292 35.539-43.292 12.667 0 26.556 17.767 36.771 46.712-2.739 4.08-4.752 8.687-5.84 13.638-12.122 3.854-20.93 15.218-20.93 28.599 0 16.542 13.458 30 30 30h11.585c1.269 13.362 1.921 27.127 1.921 41.05 0 58.193-11.417 112.322-29.794 141.261-7.426 11.693-10.738 24.952-10.738 42.991 0 4.184-.613 7.741-1.342 10h-23.263c-.729-2.259-1.342-5.816-1.342-10 0-18.038-3.312-31.296-10.738-42.99-4.449-7.006-8.578-15.678-12.272-25.776-1.898-5.186-7.639-7.854-12.827-5.955-5.187 1.897-7.853 7.64-5.955 12.827 4.187 11.443 8.955 21.411 14.172 29.625 3.548 5.587 7.621 14.305 7.621 32.269 0 3.482.291 6.86.833 10h-9.359c-5.514 0-10-4.486-10-10 0-25.899-16.837-38.799-29.502-46.248-48.731-28.665-79.001-81.545-79.001-138.003zm128.5 252.001v-37.75h63v37.75zm-138.501-87.751c0-5.514 4.486-10 10-10 5.523 0 10-4.477 10-10 0-10.966 8.873-19.891 19.816-19.991 11.495 12.037 24.628 22.502 39.043 30.981 9.845 5.791 15.561 11.688 18.082 19.01h-86.941c-5.514.001-10-4.485-10-10zm210.001 137.751c0 5.514-4.486 10-10 10h-60c-5.514 0-10-4.486-10-10v-30h80zm41.001-163.999c-12.665 7.45-29.502 20.35-29.502 46.249 0 5.514-4.486 10-10 10h-9.359c.543-3.14.833-6.518.833-10 0-17.965 4.073-26.681 7.622-32.268 20.607-32.451 32.911-89.268 32.911-151.983 0-13.896-.623-27.654-1.835-41.05h83.001c3.529 13.337 5.328 27.112 5.328 41.05 0 56.458-30.271 109.338-78.999 138.002z" data-original="#000000" class="" style="fill:#000000"/><path d="m199.072 265.421c5.523 0 10-4.477 10-10s-4.477-10-10-10h-.007c-5.523 0-9.996 4.477-9.996 10s4.48 10 10.003 10z" data-original="#000000" class="" style="fill:#000000"/></g></g></g> </svg>
