<?xml version="1.0"?>
<svg xmlns="http://www.w3.org/2000/svg" id="Capa_1" enable-background="new 0 0 508.005 508.005" height="512px" viewBox="0 0 508.005 508.005" width="512px" class=""><g><g><path d="m152.046 107.4c16.21 0 31.308 4.76 43.974 12.956 12.341-54.312 60.92-94.853 118.968-94.853 67.379 0 122 54.621 122 122s-54.621 122-122 122c-56.781 0-162.942-.014-162.942-.014-44.76 0-81.044-36.285-81.044-81.044 0-44.76 36.285-81.045 81.044-81.045z" fill="#a7bdcd" data-original="#A7BDCD" class="" style="fill:#B7D1E2" data-old_color="#a7bdcd"/><path d="m401.008 288.528c-19.401 0-37.471 5.697-52.63 15.508-14.765-64.998-72.899-113.517-142.366-113.517-80.629 0-145.992 65.363-145.992 145.992 0 12.329 1.529 24.301 4.406 35.737-30.125.374-54.431 24.911-54.431 55.125 0 30.447 24.682 55.13 55.13 55.13h335.883c53.565 0 96.987-43.423 96.987-96.987s-43.423-96.988-96.987-96.988z" fill="#e2e9ee" data-original="#E2E9EE" class="active-path" style="fill:#F4F4F4" data-old_color="#e2e9ee"/><path d="m175.829 196.116c0 5.525-4.479 10.004-10.004 10.004s-10.004-4.479-10.004-10.004 4.479-10.004 10.004-10.004 10.004 4.479 10.004 10.004zm332.176 189.386c0 59.094-47.906 107-107 107h-335.88c-35.968 0-65.125-29.157-65.125-65.125 0-31.593 22.497-57.932 52.345-63.871-1.531-8.771-2.329-17.794-2.329-27.004 0-34.487 11.191-66.36 30.139-92.186-12.405-15.926-19.152-35.464-19.152-55.872 0-50.202 40.842-91.044 91.044-91.044 13.129 0 25.968 2.8 37.753 8.175 7.96-23.692 22.671-44.945 42.28-60.791 23.366-18.883 52.811-29.282 82.909-29.282 72.785 0 132 59.215 132 132 0 31.489-11.271 61.98-31.736 85.858-17.354 20.248-40.385 34.725-65.846 41.601 1.969 4.581 3.724 9.275 5.254 14.07 14.022-6.749 29.741-10.53 46.344-10.53 59.094.001 107 47.907 107 107.001zm-20.009-1.238c-.667-47.971-40.671-86.637-88.638-85.746-16.792.312-32.421 5.381-45.595 13.917-5.793 3.753-13.59.583-15.117-6.149-13.458-59.318-65.689-103.911-128.64-105.725-13.299-.379-12.729-20.357.57-19.978l-.027-.015c55.094 1.572 103.033 31.709 129.531 76.122 50.758-11.527 86.91-56.392 86.91-109.187 0-61.757-50.243-112-112-112-52.656 0-97.568 35.804-109.218 87.069-.724 3.185-2.957 5.815-5.981 7.047-3.026 1.23-6.462.906-9.203-.868-11.474-7.426-24.801-11.351-38.54-11.351-39.174 0-71.044 31.871-71.044 71.044 0 14.465 4.344 28.369 12.394 40.11 7.903-8.242 16.701-15.619 26.239-21.973l-.03.031c10.842-7.227 21.933 9.413 11.091 16.64l.19.049c-36.29 24.213-60.455 65.372-60.865 111.978-.105 11.945 1.33 23.537 4.119 34.592 1.587 6.289-3.206 12.29-9.692 12.387-11.936.178-23.815 5.063-32.614 14.656-16.181 17.641-15.577 45.339 1.313 62.302 8.808 8.846 20.369 13.275 31.932 13.287h335.926c48.459-.001 87.666-39.623 86.989-88.239z" data-original="#000000" class="" style="fill:#000000" data-old_color="#000000"/></g></g> </svg>
